<svg width="790.000000" height="149.000000" viewBox="0 0 790 149" fill="none" xmlns="http://www.w3.org/2000/svg" xmlns:xlink="http://www.w3.org/1999/xlink">
	<desc>
			Created with Pixso.
	</desc>
	<defs>
		<filter id="filter_2_24_dd" x="244.000000" y="28.000000" width="545.061035" height="81.333496" filterUnits="userSpaceOnUse" color-interpolation-filters="sRGB">
			<feFlood flood-opacity="0" result="BackgroundImageFix"/>
			<feColorMatrix in="SourceAlpha" type="matrix" values="0 0 0 0 0 0 0 0 0 0 0 0 0 0 0 0 0 0 127 0" result="hardAlpha"/>
			<feOffset dx="0" dy="4"/>
			<feGaussianBlur stdDeviation="1.33333"/>
			<feComposite in2="hardAlpha" operator="out" k2="-1" k3="1"/>
			<feColorMatrix type="matrix" values="0 0 0 0 0 0 0 0 0 0 0 0 0 0 0 0 0 0 0.25 0"/>
			<feBlend mode="normal" in2="BackgroundImageFix" result="effect_dropShadow_1"/>
			<feBlend mode="normal" in="SourceGraphic" in2="effect_dropShadow_1" result="shape"/>
		</filter>
		<linearGradient id="paint_linear_2_16_0" x1="130.686432" y1="61.240639" x2="3.120789" y2="61.240639" gradientUnits="userSpaceOnUse">
			<stop stop-color="#FFFFFF"/>
			<stop offset="0.431275" stop-color="#FFFFFF"/>
			<stop offset="1.000000" stop-color="#30C5D2"/>
		</linearGradient>
		<linearGradient id="paint_linear_2_23_0" x1="131.500000" y1="136.338745" x2="-0.365051" y2="136.338745" gradientUnits="userSpaceOnUse">
			<stop stop-color="#FFFFFF"/>
			<stop offset="0.431275" stop-color="#FFFFFF"/>
			<stop offset="1.000000" stop-color="#30C5D2"/>
		</linearGradient>
	</defs>
	<path id="path" d="M191 116.03L130.09 116.03C129.15 116.03 128.9 115.83 128.42 116.77C127.5 118.6 125.7 120.17 124.5 121.84C124.16 122.31 124.1 122.81 123.67 123.22L88.72 123.24C86.73 123.24 87.02 123.68 85.81 122.13L82.06 117.33C80.71 115.46 81.29 116.03 78.9 116.03L17.72 116.03C15.61 116.03 13.13 116.28 11.07 115.79C6.98 114.83 3.42 110.71 3.17 106.51C3.05 104.4 3.16 102.21 3.17 100.09L3.18 13.61C3.18 11.99 3.09 10.3 3.27 8.69C3.88 3.38 8.05 -0.48 13.37 -0.74L192.48 -0.77C194.61 -0.77 196.89 -0.93 199.01 -0.69C204.46 -0.08 208.23 4.99 208.26 10.28L208.28 103.12C208.28 104.4 208.35 105.73 208.17 107C207.5 111.74 203.8 115.53 199.02 116C198.04 116.1 197 116.03 196.01 116.03L191 116.03ZM17.44 14.55L17.49 98.5C17.49 99.12 17.4 99.92 17.52 100.52L77.22 100.53C79.5 100.53 81.92 100.34 84.18 100.6C93.68 117.89 116.84 118.45 126.76 101.5C126.86 101.32 127.18 100.65 127.32 100.56C127.55 100.4 136.43 100.52 137.34 100.52L181.36 100.53L194.1 100.54L194.15 14.56L17.44 14.55Z" fill="url(#paint_linear_2_16_0)" fill-opacity="1.000000" fill-rule="nonzero"/>
	<path id="path" d="M106.73 54.45C93.22 55.61 91.47 35.67 104.61 34.09C118.12 32.9 120 52.81 106.73 54.45Z" fill="#FFFFFF" fill-opacity="1.000000" fill-rule="nonzero"/>
	<path id="path" d="M84.21 74.82C70.95 76.1 68.33 55.86 82.28 54.53C95.7 53.5 97.09 73.63 84.21 74.82Z" fill="#FFFFFF" fill-opacity="1.000000" fill-rule="nonzero"/>
	<path id="path" d="M129.98 74.82C116.95 77.1 113.28 56.72 127.06 54.63C141 53.35 142.63 72.31 129.98 74.82Z" fill="#FFFFFF" fill-opacity="1.000000" fill-rule="nonzero"/>
	<path id="path" d="M58.83 87.63C45.63 88.37 43.53 68.82 57.12 67.17C70.13 65.99 72.49 85.97 58.83 87.63Z" fill="#FFFFFF" fill-opacity="1.000000" fill-rule="nonzero"/>
	<path id="path" d="M154.19 87.62C141.83 89.1 138.57 68.74 152.7 67.17C166.01 66.4 167.66 86.17 154.19 87.62Z" fill="#FFFFFF" fill-opacity="1.000000" fill-rule="nonzero"/>
	<path id="path" d="M107.06 100.39C104.43 100.67 101.55 99.82 99.4 98.3C92.09 93.13 95.35 81.33 104.33 79.9C117.96 78.55 120.37 98.29 107.06 100.39Z" fill="#FFFFFF" fill-opacity="1.000000" fill-rule="nonzero"/>
	<path id="path" d="M207.49 138.3L200.79 143.1C195.08 147.04 194.59 148.09 187.52 148.09L25.17 148.09C22.42 148.09 19.62 148.59 17.08 147.37C14.34 146.06 11.98 144 9.51 142.25C5.87 139.67 0.52 136.95 -0.24 132.08C-0.63 129.57 0 127.04 -0.26 124.55L61.64 124.62C62.5 124.62 71.86 124.46 72.13 124.63C72.36 124.78 72.7 125.38 72.85 125.61L74.98 128.63C75.29 129.07 75.4 129.53 75.86 129.85C77.48 130.01 79.23 129.89 80.87 129.89L130.37 129.88C131.06 129.88 132.73 130.05 133.27 129.73C134.12 127.99 135.37 126.29 136.46 124.69L211.72 124.6L211.71 131.37C211.58 133.63 210.37 135.87 208.7 137.36L207.49 138.3Z" fill="url(#paint_linear_2_23_0)" fill-opacity="1.000000" fill-rule="nonzero"/>
	<g filter="url(#filter_2_24_dd)">
		<path id="path" d="M262.59 101.33C258.35 101.33 254.95 100 252.38 97.34C249.82 94.69 248.35 91.18 248 86.82L255.96 84.41C256.44 87.69 257.25 90.15 258.38 91.79C259.51 93.43 261.19 94.26 263.4 94.26C265.13 94.26 266.44 93.76 267.34 92.78C268.23 91.79 268.68 90.46 268.68 88.79C268.68 87.3 268.35 85.96 267.69 84.76C267.04 83.57 265.96 82.35 264.47 81.09L255.61 73.48C253.82 71.93 252.31 70.2 251.08 68.29C249.86 66.38 249.25 63.9 249.25 60.86C249.25 58.11 249.8 55.8 250.91 53.92C252.01 52.04 253.56 50.6 255.56 49.62C257.56 48.63 259.9 48.14 262.59 48.14C266.89 48.14 270.17 49.47 272.44 52.13C274.71 54.78 276.02 57.99 276.38 61.75L269.57 64.17C269.34 62.38 268.98 60.81 268.5 59.47C268.02 58.13 267.34 57.08 266.44 56.34C265.54 55.59 264.38 55.22 262.95 55.22C261.4 55.22 260.16 55.74 259.23 56.78C258.31 57.83 257.84 59.07 257.84 60.5C257.84 61.39 258.04 62.27 258.43 63.14C258.81 64.01 259.49 64.86 260.44 65.69L269.57 74.11C270.83 75.24 272.01 76.47 273.11 77.78C274.22 79.09 275.13 80.59 275.84 82.26C276.56 83.93 276.92 85.87 276.92 88.08C276.92 91 276.32 93.45 275.13 95.42C273.93 97.39 272.26 98.87 270.11 99.85C267.96 100.84 265.46 101.33 262.59 101.33ZM291.87 101.33C289.84 101.33 288.05 100.75 286.5 99.58C284.95 98.42 283.72 96.93 282.82 95.11C281.93 93.29 281.48 91.36 281.48 89.33C281.48 86.11 282.02 83.39 283.09 81.18C284.17 78.97 285.65 77.11 287.53 75.59C289.41 74.06 291.59 72.74 294.06 71.6C296.54 70.47 299.15 69.36 301.9 68.29L301.9 64.62C301.9 62.53 301.78 60.8 301.54 59.42C301.3 58.05 300.81 57.02 300.06 56.34C299.32 55.65 298.2 55.31 296.7 55.31C295.39 55.31 294.33 55.6 293.53 56.2C292.72 56.8 292.14 57.65 291.78 58.75C291.42 59.86 291.24 61.16 291.24 62.65L291.24 65.24L281.75 64.89C281.87 59.16 283.18 54.93 285.69 52.22C288.2 49.5 292.08 48.14 297.33 48.14C302.47 48.14 306.1 49.55 308.26 52.35C310.4 55.16 311.48 59.22 311.48 64.53L311.48 88.17C311.48 89.78 311.52 91.33 311.61 92.82C311.7 94.32 311.82 95.7 311.97 96.99C312.12 98.27 312.26 99.48 312.37 100.61L303.6 100.61C303.42 99.66 303.2 98.45 302.93 96.99C302.66 95.52 302.47 94.2 302.35 93C301.75 95.03 300.6 96.93 298.9 98.69C297.2 100.45 294.85 101.33 291.87 101.33ZM295.63 93.09C296.59 93.09 297.48 92.82 298.32 92.29C299.15 91.75 299.9 91.14 300.56 90.45C301.21 89.76 301.66 89.21 301.9 88.79L301.9 74.11C300.41 74.94 299 75.78 297.69 76.62C296.38 77.45 295.23 78.33 294.24 79.26C293.26 80.18 292.48 81.23 291.91 82.39C291.35 83.56 291.06 84.88 291.06 86.38C291.06 88.47 291.45 90.11 292.23 91.3C293 92.49 294.14 93.09 295.63 93.09ZM332.7 101.33C328.34 101.33 325.09 99.73 322.94 96.54C320.79 93.35 319.72 87.93 319.72 80.29L319.72 70.26C319.72 66.32 320.04 62.66 320.7 59.29C321.36 55.92 322.6 53.22 324.42 51.19C326.24 49.16 328.91 48.14 332.43 48.14C334.16 48.14 335.74 48.53 337.18 49.31C338.61 50.08 339.89 51.04 341.03 52.17L341.03 28.09L350.61 28.09L350.61 100.61L341.03 100.61L341.03 97.3C339.89 98.49 338.65 99.46 337.31 100.21C335.97 100.96 334.43 101.33 332.7 101.33ZM335.12 93.81C336.01 93.81 336.97 93.64 337.98 93.32C339 92.99 340.01 92.49 341.03 91.84L341.03 57.9C340.19 57.31 339.27 56.78 338.25 56.34C337.24 55.89 336.13 55.66 334.94 55.66C332.73 55.66 331.24 56.72 330.46 58.84C329.69 60.96 329.3 63.51 329.3 66.5L329.3 81.09C329.3 83.48 329.43 85.64 329.7 87.58C329.97 89.52 330.52 91.05 331.36 92.15C332.19 93.26 333.45 93.81 335.12 93.81ZM374.43 101.33C370.19 101.33 366.98 100.48 364.8 98.78C362.62 97.08 361.16 94.67 360.41 91.57C359.67 88.47 359.29 84.85 359.29 80.73L359.29 68.83C359.29 64.47 359.68 60.75 360.46 57.68C361.23 54.6 362.71 52.25 364.89 50.6C367.07 48.96 370.25 48.14 374.43 48.14C378.19 48.14 381.1 48.75 383.16 49.98C385.22 51.2 386.63 53.02 387.41 55.44C388.19 57.86 388.57 60.86 388.57 64.44L388.57 67.48L379.89 67.48L379.89 64.35C379.89 62.08 379.74 60.29 379.44 58.98C379.14 57.66 378.6 56.71 377.83 56.11C377.05 55.51 375.95 55.22 374.52 55.22C372.96 55.22 371.77 55.57 370.93 56.29C370.1 57.01 369.55 58.22 369.28 59.92C369.01 61.62 368.87 63.93 368.87 66.86L368.87 83.15C368.87 87.57 369.29 90.52 370.13 92.02C370.96 93.51 372.46 94.26 374.6 94.26C376.22 94.26 377.4 93.88 378.14 93.14C378.89 92.39 379.37 91.33 379.57 89.96C379.78 88.58 379.89 87.03 379.89 85.3L379.89 81.09L388.57 81.09L388.57 84.67C388.57 88.14 388.17 91.12 387.36 93.63C386.56 96.14 385.13 98.05 383.07 99.36C381.01 100.67 378.13 101.33 374.43 101.33ZM397.35 100.61L397.35 28.09L406.93 28.09L406.93 54.23C408.66 52.56 410.6 51.13 412.75 49.93C414.9 48.74 417.29 48.14 419.91 48.14C421.94 48.14 423.51 48.68 424.61 49.75C425.72 50.83 426.49 52.17 426.94 53.78C427.39 55.4 427.61 57.04 427.61 58.71L427.61 100.61L418.03 100.61L418.03 61.48C418.03 59.63 417.76 58.2 417.23 57.19C416.69 56.17 415.58 55.66 413.91 55.66C412.78 55.66 411.6 55.99 410.38 56.65C409.15 57.31 408 58.11 406.93 59.07L406.93 100.61L397.35 100.61ZM437.55 100.61L437.55 48.86L447.13 48.86L447.13 100.61L437.55 100.61ZM437.55 41.16L437.55 31.13L447.13 31.13L447.13 41.16L437.55 41.16ZM457.61 100.52L457.61 28L467.19 28L467.19 71.24L481.16 48.86L491.19 48.86L479.01 69.09L490.83 100.61L481.25 100.61L471.58 74.11L467.19 80.73L467.19 100.52L457.61 100.52ZM509.54 101.33C505.72 101.33 502.71 100.55 500.5 99C498.29 97.45 496.72 95.24 495.8 92.38C494.87 89.51 494.41 86.14 494.41 82.26L494.41 67.21C494.41 63.33 494.87 59.96 495.8 57.1C496.72 54.23 498.29 52.02 500.5 50.47C502.71 48.92 505.72 48.14 509.54 48.14C513.36 48.14 516.36 48.92 518.54 50.47C520.72 52.02 522.27 54.23 523.2 57.1C524.12 59.96 524.58 63.33 524.58 67.21L524.58 82.26C524.58 86.14 524.12 89.51 523.2 92.38C522.27 95.24 520.72 97.45 518.54 99C516.36 100.55 513.36 101.33 509.54 101.33ZM509.54 94.26C511.39 94.26 512.69 93.72 513.44 92.64C514.18 91.57 514.63 90.15 514.78 88.39C514.93 86.63 515 84.79 515 82.88L515 66.68C515 64.71 514.93 62.86 514.78 61.13C514.63 59.39 514.18 57.98 513.44 56.87C512.69 55.77 511.39 55.22 509.54 55.22C507.69 55.22 506.38 55.77 505.6 56.87C504.83 57.98 504.36 59.39 504.21 61.13C504.06 62.86 503.99 64.71 503.99 66.68L503.99 82.88C503.99 84.79 504.06 86.63 504.21 88.39C504.36 90.15 504.83 91.57 505.6 92.64C506.38 93.72 507.69 94.26 509.54 94.26ZM540.07 100.61L529.87 48.86L539.54 48.86L545.89 90.49L552.34 48.86L561.65 48.86L551.8 100.61L540.07 100.61ZM600.34 101.33C596.1 101.33 592.69 100 590.13 97.34C587.56 94.69 586.1 91.18 585.74 86.82L593.71 84.41C594.19 87.69 594.99 90.15 596.13 91.79C597.26 93.43 598.93 94.26 601.14 94.26C602.87 94.26 604.19 93.76 605.08 92.78C605.98 91.79 606.42 90.46 606.42 88.79C606.42 87.3 606.1 85.96 605.44 84.76C604.78 83.57 603.71 82.35 602.22 81.09L593.35 73.48C591.56 71.93 590.05 70.2 588.83 68.29C587.61 66.38 586.99 63.9 586.99 60.86C586.99 58.11 587.55 55.8 588.65 53.92C589.75 52.04 591.31 50.6 593.31 49.62C595.31 48.63 597.65 48.14 600.34 48.14C604.63 48.14 607.92 49.47 610.18 52.13C612.45 54.78 613.77 57.99 614.12 61.75L607.32 64.17C607.08 62.38 606.72 60.81 606.24 59.47C605.77 58.13 605.08 57.08 604.19 56.34C603.29 55.59 602.13 55.22 600.69 55.22C599.14 55.22 597.9 55.74 596.98 56.78C596.05 57.83 595.59 59.07 595.59 60.5C595.59 61.39 595.78 62.27 596.17 63.14C596.56 64.01 597.23 64.86 598.19 65.69L607.32 74.11C608.57 75.24 609.75 76.47 610.86 77.78C611.96 79.09 612.87 80.59 613.59 82.26C614.3 83.93 614.66 85.87 614.66 88.08C614.66 91 614.06 93.45 612.87 95.42C611.68 97.39 610.01 98.87 607.86 99.85C605.71 100.84 603.2 101.33 600.34 101.33ZM635.97 101.33C631.73 101.33 628.53 100.48 626.35 98.78C624.17 97.08 622.71 94.67 621.96 91.57C621.21 88.47 620.84 84.85 620.84 80.73L620.84 68.83C620.84 64.47 621.23 60.75 622 57.68C622.78 54.6 624.26 52.25 626.44 50.6C628.61 48.96 631.79 48.14 635.97 48.14C639.73 48.14 642.64 48.75 644.7 49.98C646.76 51.2 648.18 53.02 648.96 55.44C649.73 57.86 650.12 60.86 650.12 64.44L650.12 67.48L641.43 67.48L641.43 64.35C641.43 62.08 641.28 60.29 640.99 58.98C640.69 57.66 640.15 56.71 639.37 56.11C638.6 55.51 637.49 55.22 636.06 55.22C634.51 55.22 633.32 55.57 632.48 56.29C631.64 57.01 631.09 58.22 630.82 59.92C630.56 61.62 630.42 63.93 630.42 66.86L630.42 83.15C630.42 87.57 630.84 90.52 631.67 92.02C632.51 93.51 634 94.26 636.15 94.26C637.76 94.26 638.94 93.88 639.69 93.14C640.43 92.39 640.91 91.33 641.12 89.96C641.33 88.58 641.43 87.03 641.43 85.3L641.43 81.09L650.12 81.09L650.12 84.67C650.12 88.14 649.72 91.12 648.91 93.63C648.1 96.14 646.67 98.05 644.61 99.36C642.55 100.67 639.67 101.33 635.97 101.33ZM658.89 100.61L658.89 28.09L668.48 28.09L668.48 54.23C670.21 52.56 672.15 51.13 674.3 49.93C676.44 48.74 678.83 48.14 681.46 48.14C683.49 48.14 685.06 48.68 686.16 49.75C687.26 50.83 688.04 52.17 688.49 53.78C688.94 55.4 689.16 57.04 689.16 58.71L689.16 100.61L679.58 100.61L679.58 61.48C679.58 59.63 679.31 58.2 678.77 57.19C678.24 56.17 677.13 55.66 675.46 55.66C674.32 55.66 673.15 55.99 671.92 56.65C670.7 57.31 669.55 58.11 668.48 59.07L668.48 100.61L658.89 100.61ZM712.71 101.33C708.89 101.33 705.87 100.55 703.66 99C701.46 97.45 699.89 95.24 698.96 92.38C698.04 89.51 697.58 86.14 697.58 82.26L697.58 67.21C697.58 63.33 698.04 59.96 698.96 57.1C699.89 54.23 701.46 52.02 703.66 50.47C705.87 48.92 708.89 48.14 712.71 48.14C716.53 48.14 719.53 48.92 721.71 50.47C723.89 52.02 725.44 54.23 726.36 57.1C727.29 59.96 727.75 63.33 727.75 67.21L727.75 82.26C727.75 86.14 727.29 89.51 726.36 92.38C725.44 95.24 723.89 97.45 721.71 99C719.53 100.55 716.53 101.33 712.71 101.33ZM712.71 94.26C714.56 94.26 715.86 93.72 716.6 92.64C717.35 91.57 717.8 90.15 717.95 88.39C718.1 86.63 718.17 84.79 718.17 82.88L718.17 66.68C718.17 64.71 718.1 62.86 717.95 61.13C717.8 59.39 717.35 57.98 716.6 56.87C715.86 55.77 714.56 55.22 712.71 55.22C710.86 55.22 709.54 55.77 708.77 56.87C707.99 57.98 707.53 59.39 707.38 61.13C707.23 62.86 707.16 64.71 707.16 66.68L707.16 82.88C707.16 84.79 707.23 86.63 707.38 88.39C707.53 90.15 707.99 91.57 708.77 92.64C709.54 93.72 710.86 94.26 712.71 94.26ZM750.76 101.33C746.94 101.33 743.93 100.55 741.72 99C739.51 97.45 737.94 95.24 737.02 92.38C736.09 89.51 735.63 86.14 735.63 82.26L735.63 67.21C735.63 63.33 736.09 59.96 737.02 57.1C737.94 54.23 739.51 52.02 741.72 50.47C743.93 48.92 746.94 48.14 750.76 48.14C754.58 48.14 757.58 48.92 759.76 50.47C761.94 52.02 763.49 54.23 764.42 57.1C765.34 59.96 765.81 63.33 765.81 67.21L765.81 82.26C765.81 86.14 765.34 89.51 764.42 92.38C763.49 95.24 761.94 97.45 759.76 99C757.58 100.55 754.58 101.33 750.76 101.33ZM750.76 94.26C752.61 94.26 753.91 93.72 754.66 92.64C755.4 91.57 755.85 90.15 756 88.39C756.15 86.63 756.22 84.79 756.22 82.88L756.22 66.68C756.22 64.71 756.15 62.86 756 61.13C755.85 59.39 755.4 57.98 754.66 56.87C753.91 55.77 752.61 55.22 750.76 55.22C748.91 55.22 747.6 55.77 746.82 56.87C746.05 57.98 745.58 59.39 745.43 61.13C745.29 62.86 745.21 64.71 745.21 66.68L745.21 82.88C745.21 84.79 745.29 86.63 745.43 88.39C745.58 90.15 746.05 91.57 746.82 92.64C747.6 93.72 748.91 94.26 750.76 94.26ZM775.48 100.61L775.48 28.09L785.06 28.09L785.06 100.61L775.48 100.61Z" fill="#FFFFFF" fill-opacity="1.000000" fill-rule="nonzero"/>
	</g>
</svg>
