<svg width="24.000000" height="24.000000" viewBox="0 0 24 24" fill="none" xmlns="http://www.w3.org/2000/svg" xmlns:xlink="http://www.w3.org/1999/xlink">
	<desc>
			Created with Pixso.
	</desc>
	<defs>
		<clipPath id="clip2_197">
			<rect id="Гамбургер Икона" width="24.000000" height="24.000000" transform="translate(-0.433289 -0.782349)" fill="white" fill-opacity="0"/>
		</clipPath>
	</defs>
	<g clip-path="url(#clip2_197)">
		<path id="path" d="M3.56 5.92L3.54 5.94C3.12 5.94 2.79 5.61 2.79 5.19C2.79 4.77 3.12 4.44 3.54 4.44L3.56 4.46L3.56 5.92ZM19.52 4.46L19.54 4.44C19.96 4.44 20.29 4.77 20.29 5.19C20.29 5.61 19.96 5.94 19.54 5.94L19.52 5.92L19.52 4.46Z" fill="#000000" fill-opacity="0" fill-rule="nonzero"/>
		<path id="path" d="M3.54 5.19L19.54 5.19" stroke="#FFFFFF" stroke-opacity="1.000000" stroke-width="1.500000" stroke-linejoin="round" stroke-linecap="round"/>
		<path id="path" d="M3.56 11.92L3.54 11.94C3.12 11.94 2.79 11.61 2.79 11.19C2.79 10.77 3.12 10.44 3.54 10.44L3.56 10.46L3.56 11.92ZM19.52 10.46L19.54 10.44C19.96 10.44 20.29 10.77 20.29 11.19C20.29 11.61 19.96 11.94 19.54 11.94L19.52 11.92L19.52 10.46Z" fill="#000000" fill-opacity="0" fill-rule="nonzero"/>
		<path id="path" d="M3.54 11.19L19.54 11.19" stroke="#FFFFFF" stroke-opacity="1.000000" stroke-width="1.500000" stroke-linejoin="round" stroke-linecap="round"/>
		<path id="path" d="M3.56 17.92L3.54 17.94C3.12 17.94 2.79 17.61 2.79 17.19C2.79 16.77 3.12 16.44 3.54 16.44L3.56 16.46L3.56 17.92ZM19.52 16.46L19.54 16.44C19.96 16.44 20.29 16.77 20.29 17.19C20.29 17.61 19.96 17.94 19.54 17.94L19.52 17.92L19.52 16.46Z" fill="#000000" fill-opacity="0" fill-rule="nonzero"/>
		<path id="path" d="M3.54 17.19L19.54 17.19" stroke="#FFFFFF" stroke-opacity="1.000000" stroke-width="1.500000" stroke-linejoin="round" stroke-linecap="round"/>
	</g>
</svg>
