<svg width="24.000000" height="24.000000" viewBox="0 0 24 24" fill="none" xmlns="http://www.w3.org/2000/svg" xmlns:xlink="http://www.w3.org/1999/xlink">
	<desc>
			Created with Pixso.
	</desc>
	<defs>
		<clipPath id="clip2_191">
			<rect id="Бадминтон" width="24.000000" height="24.000000" transform="translate(-0.974121 -0.856934)" fill="white" fill-opacity="0"/>
		</clipPath>
	</defs>
	<g clip-path="url(#clip2_191)">
		<path id="path" d="M8.77 21.14C10.02 21.14 11.02 20.13 11.02 18.89L11.02 8.64L9.02 8.64L6.52 18.89C6.52 20.13 7.53 21.14 8.77 21.14Z" fill="#000000" fill-opacity="0" fill-rule="nonzero"/>
		<path id="path" d="M11.02 18.89L11.02 8.64L9.02 8.64L6.52 18.89C6.52 20.13 7.53 21.14 8.77 21.14C10.02 21.14 11.02 20.13 11.02 18.89Z" stroke="#FFFFFF" stroke-opacity="1.000000" stroke-width="1.500000" stroke-linejoin="round"/>
		<path id="path" d="M9 7.91L9.02 7.89C9.44 7.89 9.77 8.22 9.77 8.64C9.77 9.06 9.44 9.39 9.02 9.39L9 9.37L9 7.91ZM5.79 18.91L5.77 18.89C5.77 18.47 6.1 18.14 6.52 18.14C6.94 18.14 7.27 18.47 7.27 18.89L7.25 18.91L5.79 18.91Z" fill="#000000" fill-opacity="0" fill-rule="nonzero"/>
		<path id="path" d="M9.02 8.64L7.02 8.64L2.36 18.09C1.81 19.39 2.6 20.96 4.01 21.12C4.1 21.13 4.18 21.14 4.27 21.14C5.52 21.14 6.52 20.13 6.52 18.89" stroke="#FFFFFF" stroke-opacity="1.000000" stroke-width="1.500000" stroke-linejoin="round" stroke-linecap="round"/>
		<path id="path" d="M13.27 21.14C12.03 21.14 11.02 20.13 11.02 18.89L11.02 8.64L13.02 8.64L15.52 18.89C15.52 20.13 14.52 21.14 13.27 21.14Z" fill="#000000" fill-opacity="0" fill-rule="nonzero"/>
		<path id="path" d="M11.02 18.89L11.02 8.64L13.02 8.64L15.52 18.89C15.52 20.13 14.52 21.14 13.27 21.14C12.03 21.14 11.02 20.13 11.02 18.89Z" stroke="#FFFFFF" stroke-opacity="1.000000" stroke-width="1.500000" stroke-linejoin="round"/>
		<path id="path" d="M13.04 9.37L13.02 9.39C12.6 9.39 12.27 9.06 12.27 8.64C12.27 8.22 12.6 7.89 13.02 7.89L13.04 7.91L13.04 9.37ZM14.79 18.91L14.77 18.89C14.77 18.47 15.1 18.14 15.52 18.14C15.94 18.14 16.27 18.47 16.27 18.89L16.25 18.91L14.79 18.91Z" fill="#000000" fill-opacity="0" fill-rule="nonzero"/>
		<path id="path" d="M13.02 8.64L15.02 8.64L19.68 18.09C20.24 19.39 19.44 20.96 18.03 21.12C17.95 21.13 17.86 21.14 17.77 21.14C16.53 21.14 15.52 20.13 15.52 18.89" stroke="#FFFFFF" stroke-opacity="1.000000" stroke-width="1.500000" stroke-linejoin="round" stroke-linecap="round"/>
		<path id="path" d="M7.05 5.64C7.03 5.47 7.02 5.31 7.02 5.14C7.02 2.93 8.81 1.14 11.02 1.14C13.23 1.14 15.02 2.93 15.02 5.14C15.02 5.31 15.01 5.47 14.99 5.64L7.05 5.64Z" fill="#000000" fill-opacity="0" fill-rule="nonzero"/>
		<path id="path" d="M7.02 5.14C7.02 2.93 8.81 1.14 11.02 1.14C13.23 1.14 15.02 2.93 15.02 5.14C15.02 5.31 15.01 5.47 14.99 5.64L7.05 5.64C7.03 5.47 7.02 5.31 7.02 5.14Z" stroke="#FFFFFF" stroke-opacity="1.000000" stroke-width="1.500000" stroke-linejoin="round"/>
	</g>
</svg>
